<mxfile host="65bd71144e">
    <diagram id="n-0wqSwhZ6i_WBtEKtWH" name="FORM">
        <mxGraphModel dx="458" dy="607" grid="1" gridSize="10" guides="1" tooltips="1" connect="1" arrows="1" fold="1" page="1" pageScale="1" pageWidth="5000" pageHeight="5000" math="0" shadow="0">
            <root>
                <mxCell id="0"/>
                <mxCell id="1" parent="0"/>
                <mxCell id="22" value="" style="whiteSpace=wrap;html=1;" parent="1" vertex="1">
                    <mxGeometry x="195" y="150" width="230" height="400" as="geometry"/>
                </mxCell>
                <mxCell id="26" value="Duration" style="text;strokeColor=none;align=left;fillColor=none;html=1;verticalAlign=middle;whiteSpace=wrap;rounded=0;" parent="1" vertex="1">
                    <mxGeometry x="215" y="255" width="90" height="30" as="geometry"/>
                </mxCell>
                <mxCell id="27" value="40 min" style="whiteSpace=wrap;html=1;align=left;" parent="1" vertex="1">
                    <mxGeometry x="215" y="370" width="190" height="20" as="geometry"/>
                </mxCell>
                <mxCell id="28" value="Calories Burned" style="text;strokeColor=none;align=left;fillColor=none;html=1;verticalAlign=middle;whiteSpace=wrap;rounded=0;" parent="1" vertex="1">
                    <mxGeometry x="215" y="400" width="90" height="30" as="geometry"/>
                </mxCell>
                <mxCell id="29" value="300 kcal" style="whiteSpace=wrap;html=1;align=left;" parent="1" vertex="1">
                    <mxGeometry x="215" y="430" width="190" height="20" as="geometry"/>
                </mxCell>
                <mxCell id="30" value="Type of Activity" style="text;strokeColor=none;align=left;fillColor=none;html=1;verticalAlign=middle;whiteSpace=wrap;rounded=0;" parent="1" vertex="1">
                    <mxGeometry x="210" y="235" width="100" height="30" as="geometry"/>
                </mxCell>
                <mxCell id="31" value="Running" style="whiteSpace=wrap;html=1;align=left;" parent="1" vertex="1">
                    <mxGeometry x="215" y="265" width="190" height="20" as="geometry"/>
                </mxCell>
                <mxCell id="32" value="Duration" style="text;strokeColor=none;align=left;fillColor=none;html=1;verticalAlign=middle;whiteSpace=wrap;rounded=0;" parent="1" vertex="1">
                    <mxGeometry x="215" y="340" width="90" height="30" as="geometry"/>
                </mxCell>
                <mxCell id="33" value="Date" style="text;strokeColor=none;align=left;fillColor=none;html=1;verticalAlign=middle;whiteSpace=wrap;rounded=0;" parent="1" vertex="1">
                    <mxGeometry x="210" y="180" width="100" height="30" as="geometry"/>
                </mxCell>
                <mxCell id="34" value="04/02/10" style="whiteSpace=wrap;html=1;align=left;" parent="1" vertex="1">
                    <mxGeometry x="215" y="210" width="190" height="20" as="geometry"/>
                </mxCell>
                <mxCell id="35" value="5km" style="whiteSpace=wrap;html=1;align=left;" parent="1" vertex="1">
                    <mxGeometry x="215" y="315" width="190" height="20" as="geometry"/>
                </mxCell>
                <mxCell id="36" value="Distance" style="text;strokeColor=none;align=left;fillColor=none;html=1;verticalAlign=middle;whiteSpace=wrap;rounded=0;" parent="1" vertex="1">
                    <mxGeometry x="215" y="285" width="90" height="30" as="geometry"/>
                </mxCell>
                <mxCell id="37" value="Notes" style="text;strokeColor=none;align=left;fillColor=none;html=1;verticalAlign=middle;whiteSpace=wrap;rounded=0;" parent="1" vertex="1">
                    <mxGeometry x="215" y="450" width="90" height="30" as="geometry"/>
                </mxCell>
                <mxCell id="38" value="I felt good&amp;nbsp;" style="whiteSpace=wrap;html=1;align=left;" parent="1" vertex="1">
                    <mxGeometry x="215" y="480" width="190" height="20" as="geometry"/>
                </mxCell>
                <mxCell id="39" value="" style="whiteSpace=wrap;html=1;" parent="1" vertex="1">
                    <mxGeometry x="470" y="150" width="230" height="440" as="geometry"/>
                </mxCell>
                <mxCell id="40" value="Duration" style="text;strokeColor=none;align=left;fillColor=none;html=1;verticalAlign=middle;whiteSpace=wrap;rounded=0;" parent="1" vertex="1">
                    <mxGeometry x="490" y="255" width="90" height="30" as="geometry"/>
                </mxCell>
                <mxCell id="41" value="2" style="whiteSpace=wrap;html=1;align=left;" parent="1" vertex="1">
                    <mxGeometry x="490" y="370" width="190" height="20" as="geometry"/>
                </mxCell>
                <mxCell id="42" value="Calories Burned" style="text;strokeColor=none;align=left;fillColor=none;html=1;verticalAlign=middle;whiteSpace=wrap;rounded=0;" parent="1" vertex="1">
                    <mxGeometry x="490" y="460" width="90" height="30" as="geometry"/>
                </mxCell>
                <mxCell id="43" value="300 kcal" style="whiteSpace=wrap;html=1;align=left;" parent="1" vertex="1">
                    <mxGeometry x="490" y="490" width="190" height="20" as="geometry"/>
                </mxCell>
                <mxCell id="44" value="Type of Activity" style="text;strokeColor=none;align=left;fillColor=none;html=1;verticalAlign=middle;whiteSpace=wrap;rounded=0;" parent="1" vertex="1">
                    <mxGeometry x="485" y="235" width="100" height="30" as="geometry"/>
                </mxCell>
                <mxCell id="45" value="Strenght Training&amp;nbsp;" style="whiteSpace=wrap;html=1;align=left;" parent="1" vertex="1">
                    <mxGeometry x="490" y="265" width="190" height="20" as="geometry"/>
                </mxCell>
                <mxCell id="46" value="Sets" style="text;strokeColor=none;align=left;fillColor=none;html=1;verticalAlign=middle;whiteSpace=wrap;rounded=0;" parent="1" vertex="1">
                    <mxGeometry x="490" y="340" width="90" height="30" as="geometry"/>
                </mxCell>
                <mxCell id="47" value="Date" style="text;strokeColor=none;align=left;fillColor=none;html=1;verticalAlign=middle;whiteSpace=wrap;rounded=0;" parent="1" vertex="1">
                    <mxGeometry x="485" y="180" width="100" height="30" as="geometry"/>
                </mxCell>
                <mxCell id="48" value="04/02/10" style="whiteSpace=wrap;html=1;align=left;" parent="1" vertex="1">
                    <mxGeometry x="490" y="210" width="190" height="20" as="geometry"/>
                </mxCell>
                <mxCell id="49" value="5km" style="whiteSpace=wrap;html=1;align=left;" parent="1" vertex="1">
                    <mxGeometry x="490" y="315" width="190" height="20" as="geometry"/>
                </mxCell>
                <mxCell id="50" value="Repetitions" style="text;strokeColor=none;align=left;fillColor=none;html=1;verticalAlign=middle;whiteSpace=wrap;rounded=0;" parent="1" vertex="1">
                    <mxGeometry x="490" y="285" width="90" height="30" as="geometry"/>
                </mxCell>
                <mxCell id="51" value="Notes" style="text;strokeColor=none;align=left;fillColor=none;html=1;verticalAlign=middle;whiteSpace=wrap;rounded=0;" parent="1" vertex="1">
                    <mxGeometry x="490" y="540" width="90" height="10" as="geometry"/>
                </mxCell>
                <mxCell id="52" value="I felt good&amp;nbsp;" style="whiteSpace=wrap;html=1;align=left;" parent="1" vertex="1">
                    <mxGeometry x="490" y="540" width="190" height="20" as="geometry"/>
                </mxCell>
                <mxCell id="53" value="Cardio Activities" style="text;strokeColor=none;align=center;fillColor=none;html=1;verticalAlign=middle;whiteSpace=wrap;rounded=0;" parent="1" vertex="1">
                    <mxGeometry x="265" y="160" width="90" height="30" as="geometry"/>
                </mxCell>
                <mxCell id="55" value="&lt;font size=&quot;1&quot; style=&quot;&quot; color=&quot;#000000&quot;&gt;&lt;b style=&quot;font-size: 15px;&quot;&gt;Form will change in base of the activity selected&amp;nbsp;&lt;/b&gt;&lt;/font&gt;" style="text;strokeColor=#23445d;align=center;fillColor=#bac8d3;html=1;verticalAlign=middle;whiteSpace=wrap;rounded=0;perimeterSpacing=0;strokeWidth=6;" parent="1" vertex="1">
                    <mxGeometry x="345" y="60" width="195" height="60" as="geometry"/>
                </mxCell>
                <mxCell id="56" value="2 min" style="whiteSpace=wrap;html=1;align=left;" parent="1" vertex="1">
                    <mxGeometry x="490" y="430" width="190" height="20" as="geometry"/>
                </mxCell>
                <mxCell id="57" value="Rest between sets" style="text;strokeColor=none;align=left;fillColor=none;html=1;verticalAlign=middle;whiteSpace=wrap;rounded=0;" parent="1" vertex="1">
                    <mxGeometry x="490" y="400" width="120" height="30" as="geometry"/>
                </mxCell>
                <mxCell id="58" value="Notes" style="text;strokeColor=none;align=left;fillColor=none;html=1;verticalAlign=middle;whiteSpace=wrap;rounded=0;" parent="1" vertex="1">
                    <mxGeometry x="490" y="510" width="90" height="30" as="geometry"/>
                </mxCell>
                <mxCell id="59" value="Strength Training" style="text;strokeColor=none;align=center;fillColor=none;html=1;verticalAlign=middle;whiteSpace=wrap;rounded=0;" parent="1" vertex="1">
                    <mxGeometry x="540" y="160" width="100" height="30" as="geometry"/>
                </mxCell>
                <mxCell id="61" style="edgeStyle=none;html=1;entryX=0.5;entryY=0;entryDx=0;entryDy=0;" parent="1" source="60" target="62" edge="1">
                    <mxGeometry relative="1" as="geometry">
                        <mxPoint x="1040" y="240" as="targetPoint"/>
                        <Array as="points">
                            <mxPoint x="1040" y="160"/>
                        </Array>
                    </mxGeometry>
                </mxCell>
                <mxCell id="60" value="DASHBOARD" style="whiteSpace=wrap;html=1;" parent="1" vertex="1">
                    <mxGeometry x="1090" y="60" width="120" height="60" as="geometry"/>
                </mxCell>
                <mxCell id="62" value="Real Data" style="whiteSpace=wrap;html=1;" parent="1" vertex="1">
                    <mxGeometry x="980" y="240" width="120" height="60" as="geometry"/>
                </mxCell>
            </root>
        </mxGraphModel>
    </diagram>
    <diagram id="NvLqQGpp3rCvqGkDMbCt" name="Page-2">
        <mxGraphModel dx="1008" dy="714" grid="1" gridSize="10" guides="1" tooltips="1" connect="1" arrows="1" fold="1" page="1" pageScale="1" pageWidth="850" pageHeight="1100" math="0" shadow="0">
            <root>
                <mxCell id="0"/>
                <mxCell id="1" parent="0"/>
            </root>
        </mxGraphModel>
    </diagram>
</mxfile>